<svg width="32" height="25" fill="none" xmlns="http://www.w3.org/2000/svg"><path d="M18.59 9.455c0-1.233-.887-1.914-2.448-1.914h-2.87v3.974h2.42c1.868-.006 2.899-.742 2.899-2.06Zm10.45-.714c-.542-1.725-.621-3.84-.559-5.476C28.544 1.563 27.19 0 25.366 0H6.645C4.817 0 3.468 1.568 3.53 3.265c.057 1.636-.017 3.751-.558 5.476C2.426 10.47 1.51 11.565 0 11.705v1.59c1.503.14 2.426 1.234 2.972 2.964.541 1.725.62 3.84.558 5.476C3.468 23.437 4.823 25 6.645 25H25.36c1.828 0 3.177-1.568 3.114-3.265-.056-1.636.017-3.751.558-5.476.547-1.73 1.464-2.824 2.967-2.964v-1.59c-1.497-.14-2.42-1.234-2.96-2.964ZM16.694 19.15H11.12V5.85h5.546c2.466 0 4.083 1.306 4.083 3.315 0 1.412-1.088 2.674-2.477 2.891v.073c1.89.2 3.16 1.485 3.16 3.254 0 2.35-1.782 3.768-4.737 3.768Zm-.57-6.068h-2.852v4.376h2.977c1.948 0 2.979-.764 2.979-2.204 0-1.435-1.06-2.172-3.104-2.172Z" fill="#323338"/></svg>