<svg width="23" height="31" fill="none" xmlns="http://www.w3.org/2000/svg"><g clip-path="url(#a)"><path d="M.84 5.8C.84 2.597 3.409 0 6.577 0h9.845c3.17 0 5.738 2.597 5.738 5.8a5.81 5.81 0 0 1-2.59 4.85 5.811 5.811 0 0 1 2.59 4.85c0 3.203-2.569 5.8-5.738 5.8h-.124c-1.486 0-2.84-.57-3.858-1.507v5.344C12.44 28.383 9.804 31 6.608 31 3.448 31 .84 28.411.84 25.2a5.81 5.81 0 0 1 2.59-4.85A5.81 5.81 0 0 1 .84 15.5a5.811 5.811 0 0 1 2.59-4.85A5.811 5.811 0 0 1 .84 5.8Zm9.72 5.8H6.577c-2.13 0-3.858 1.746-3.858 3.9 0 2.146 1.714 3.887 3.834 3.9h4.007v-7.8Zm1.88 3.9c0 2.154 1.727 3.9 3.858 3.9h.124c2.131 0 3.859-1.746 3.859-3.9s-1.728-3.9-3.859-3.9h-.124c-2.131 0-3.858 1.746-3.858 3.9Zm-5.863 5.8h-.024c-2.12.013-3.834 1.754-3.834 3.9s1.75 3.9 3.89 3.9c2.172 0 3.951-1.782 3.951-3.963V21.3H6.577Zm0-19.4c-2.13 0-3.858 1.746-3.858 3.9s1.728 3.9 3.858 3.9h3.983V1.9H6.577Zm5.863 7.8h3.982c2.131 0 3.859-1.746 3.859-3.9s-1.728-3.9-3.859-3.9H12.44v7.8Z" fill="#323338"/></g><defs><clipPath id="a"><path fill="#fff" d="M0 0h23v31H0z"/></clipPath></defs></svg>