<svg width="32" height="36" fill="none" xmlns="http://www.w3.org/2000/svg"><g clip-path="url(#a)"><path d="M31.396 16.597 17.43 2.844a2.079 2.079 0 0 0-1.458-.594c-.546 0-1.07.214-1.457.594l-2.905 2.857 3.68 3.622c1.933-.642 3.763 1.18 3.1 3.072l3.547 3.491c2.445-.83 4.37 2.18 2.533 3.986-1.892 1.863-5.015-.201-4-2.625l-3.31-3.255v8.568c1.807.882 1.59 2.942.648 3.867a2.473 2.473 0 0 1-1.734.707c-.65 0-1.274-.255-1.734-.707-1.255-1.238-.79-3.298.804-3.938v-8.648c-1.486-.598-1.757-2.161-1.332-3.164l-3.627-3.575-9.58 9.431c-.387.38-.604.897-.604 1.435s.217 1.054.604 1.435l13.972 13.753c.386.38.91.594 1.457.594.546 0 1.07-.214 1.457-.594l13.907-13.69c.386-.38.603-.896.603-1.434 0-.538-.217-1.054-.604-1.435Z" fill="#323338"/></g><defs><clipPath id="a"><path fill="#fff" d="M0 0h32v36H0z"/></clipPath></defs></svg>