<svg width="30" height="31" fill="none" xmlns="http://www.w3.org/2000/svg"><path d="M10.034 24.061c0 .121-.139.218-.314.218-.2.018-.339-.078-.339-.218 0-.12.14-.218.315-.218.181-.018.338.08.338.218Zm-1.88-.272c-.043.121.078.26.26.296.157.061.338 0 .374-.12.037-.122-.078-.26-.26-.315-.157-.043-.332.018-.375.139Zm2.673-.103c-.176.042-.297.157-.279.297.018.12.176.2.357.157.176-.042.297-.157.279-.279-.019-.114-.182-.193-.357-.175ZM14.807.484C6.416.484 0 6.86 0 15.258c0 6.715 4.222 12.46 10.252 14.483.774.139 1.046-.34 1.046-.733 0-.375-.018-2.446-.018-3.718 0 0-4.234.909-5.123-1.804 0 0-.69-1.762-1.681-2.216 0 0-1.385-.95.097-.932 0 0 1.506.12 2.334 1.562 1.325 2.337 3.545 1.665 4.41 1.265.139-.968.532-1.64.967-2.04-3.38-.376-6.792-.866-6.792-6.69 0-1.666.46-2.501 1.427-3.567-.157-.393-.671-2.016.158-4.111 1.264-.394 4.173 1.635 4.173 1.635 1.21-.34 2.51-.515 3.798-.515 1.289 0 2.59.176 3.799.515 0 0 2.909-2.035 4.173-1.635.829 2.101.315 3.718.157 4.111.968 1.072 1.56 1.907 1.56 3.566 0 5.843-3.562 6.31-6.943 6.69.557.48 1.029 1.387 1.029 2.81 0 2.04-.019 4.565-.019 5.062 0 .394.279.872 1.047.733C25.899 27.718 30 21.973 30 15.258 30 6.86 23.196.484 14.806.484ZM5.878 21.367c-.079.06-.06.2.042.315.097.097.236.14.315.06.079-.06.06-.2-.042-.315-.097-.096-.236-.139-.315-.06Zm-.653-.49c-.043.078.018.175.139.236.097.06.218.042.26-.043.042-.078-.018-.175-.14-.236-.12-.036-.217-.018-.26.043Zm1.96 2.155c-.097.079-.061.26.078.375.14.14.315.158.393.061.079-.079.043-.26-.078-.375-.133-.14-.315-.158-.394-.061Zm-.69-.89c-.097.06-.097.218 0 .357.097.14.26.2.339.14.096-.08.096-.237 0-.376-.085-.14-.242-.2-.339-.121Z" fill="#323338"/></svg>