<svg width="30" height="35" fill="none" xmlns="http://www.w3.org/2000/svg"><path d="M26.72 2.188H3.282c-1.765 0-3.196 1.47-3.196 3.28v24.063c0 1.812 1.431 3.282 3.196 3.282H26.72c1.764 0 3.196-1.47 3.196-3.282V5.47c0-1.812-1.432-3.282-3.197-3.282Zm-10.4 23.884c0 2.98-1.706 4.341-4.19 4.341-2.243 0-3.541-1.19-4.207-2.632l2.284-1.415c.44.8.839 1.477 1.804 1.477.919 0 1.505-.37 1.505-1.812V16.25h2.803v9.823Zm6.63 4.341c-2.603 0-4.287-1.271-5.106-2.94l2.284-1.353c.599 1.005 1.385 1.75 2.763 1.75 1.158 0 1.904-.595 1.904-1.422 0-.984-.759-1.333-2.044-1.914l-.7-.307c-2.023-.882-3.361-1.997-3.361-4.341 0-2.16 1.604-3.801 4.101-3.801 1.785 0 3.063.636 3.982 2.304l-2.184 1.435c-.48-.882-.999-1.23-1.805-1.23-.819 0-1.338.533-1.338 1.23 0 .861.52 1.21 1.724 1.75l.7.308c2.383 1.046 3.722 2.119 3.722 4.525 0 2.584-1.984 4.006-4.641 4.006Z" fill="#323338"/></svg>