<svg width="39" height="39" fill="none" xmlns="http://www.w3.org/2000/svg"><g clip-path="url(#a)"><path d="M26.66 9.223c-.19 0-.316.026-.444.058v.02h.02c.088.164.235.292.348.444.09.172.165.349.247.52l.026-.025c.152-.109.23-.28.23-.54-.064-.077-.078-.158-.134-.23-.063-.108-.203-.164-.292-.247ZM9.378 30.665H7.873a85.583 85.583 0 0 0-.438-7.166h-.012l-2.291 7.166h-1.15L1.71 23.499h-.02a120.63 120.63 0 0 0-.316 7.166H.002c.074-3.005.297-6.005.667-8.988h1.866l2.17 6.602h.012l2.19-6.602h1.777c.394 3.276.63 6.271.699 8.988h-.006Zm6.525-6.633c-.61 3.326-1.422 5.746-2.418 7.25-.787 1.161-1.644 1.745-2.578 1.745-.247 0-.552-.077-.92-.23v-.799c.184.026.394.044.629.044.437 0 .787-.127 1.054-.362.317-.292.477-.621.477-.983 0-.254-.121-.762-.375-1.536l-1.644-5.129h1.48l1.18 3.835c.268.876.382 1.48.331 1.828.653-1.727 1.104-3.619 1.359-5.663h1.425Zm20.032 6.633h-4.277v-8.988h1.44v7.884h2.837v1.104Zm-5.395.217-1.65-.813c.146-.12.285-.253.413-.406.704-.819 1.054-2.044 1.054-3.656 0-2.978-1.167-4.462-3.504-4.462-1.143 0-2.038.374-2.679 1.13-.698.825-1.054 2.044-1.054 3.65 0 1.58.311 2.736.934 3.478.571.66 1.428.997 2.577.997.426 0 .82-.051 1.175-.158l2.153 1.256.59-1.015-.01-.001Zm-5.35-2.02c-.368-.583-.546-1.523-.546-2.819 0-2.265.686-3.395 2.063-3.395.718 0 1.25.273 1.587.813.362.59.546 1.517.546 2.8 0 2.278-.692 3.428-2.063 3.428-.724 0-1.251-.273-1.593-.813l.006-.014Zm-2.693-.684c0 .761-.279 1.39-.844 1.871-.558.49-1.302.737-2.248.737-.882 0-1.727-.28-2.558-.839l.388-.774c.71.356 1.351.534 1.936.534.54 0 .966-.12 1.27-.356.305-.241.49-.578.49-1.003 0-.534-.375-.99-1.055-1.371-.629-.349-1.892-1.066-1.892-1.066-.686-.501-1.022-1.035-1.022-1.918 0-.73.253-1.313.762-1.758.514-.457 1.167-.679 1.98-.679a4.107 4.107 0 0 1 2.28.667l-.35.774a4.415 4.415 0 0 0-1.726-.375c-.463 0-.82.115-1.067.337-.247.222-.4.5-.4.85 0 .534.382.991 1.079 1.384.641.348 1.93 1.086 1.93 1.086.704.494 1.053 1.028 1.053 1.897l-.006.002Zm15.242-9.515c-.87-.02-1.543.07-2.107.31-.159.064-.42.064-.445.267.089.09.101.23.178.349.133.216.356.508.566.66.229.178.456.356.692.509.425.26.902.413 1.32.672.235.153.476.349.71.509.12.083.196.229.349.279v-.032c-.077-.095-.095-.235-.172-.349-.109-.108-.216-.203-.324-.31a5.13 5.13 0 0 0-1.13-1.098c-.349-.236-1.11-.566-1.25-.966l-.02-.025c.235-.02.514-.109.742-.172.368-.095.71-.077 1.092-.172a8.8 8.8 0 0 0 .52-.152v-.095c-.196-.197-.342-.463-.545-.647-.561-.491-1.16-.937-1.79-1.334-.343-.222-.775-.362-1.137-.546-.126-.063-.348-.095-.419-.203-.196-.242-.31-.552-.45-.839-.32-.62-.616-1.25-.89-1.891-.196-.426-.31-.845-.551-1.239-1.118-1.847-2.337-2.964-4.203-4.062-.4-.229-.882-.324-1.39-.444-.273-.013-.54-.032-.813-.044-.178-.077-.349-.28-.501-.382-.622-.393-2.222-1.238-2.673-.12-.292.71.432 1.402.686 1.758.184.254.42.534.552.813.077.19.096.388.172.584.172.476.337 1.009.566 1.454.12.229.247.47.4.673.089.12.24.171.273.368-.153.221-.165.546-.248.813-.393 1.23-.241 2.748.311 3.656.178.273.59.87 1.143.64.489-.195.382-.812.52-1.358.032-.133.013-.216.077-.305v.026c.159.305.311.597.451.902.33.534.92 1.086 1.41 1.454.26.196.462.534.787.653v-.032h-.026c-.07-.095-.159-.14-.247-.215a6.087 6.087 0 0 1-.572-.654c-.451-.61-.857-1.282-1.213-1.974a13.252 13.252 0 0 1-.469-1.047c-.063-.127-.063-.324-.172-.387-.164.235-.406.437-.52.736-.21.463-.23 1.04-.311 1.638-.038.012-.02 0-.038.025-.348-.089-.469-.445-.597-.75-.33-.773-.381-2.011-.101-2.9.077-.23.4-.946.273-1.161-.07-.21-.285-.33-.4-.495a4.09 4.09 0 0 1-.393-.692c-.261-.61-.388-1.283-.673-1.892-.127-.28-.356-.572-.54-.831-.21-.293-.438-.501-.597-.845-.058-.12-.133-.317-.044-.445.02-.089.063-.12.152-.146.14-.12.546.032.686.101.4.159.736.311 1.073.54.152.109.317.311.514.368h.23c.348.077.735.02 1.06.12.577.185 1.098.452 1.567.743a9.705 9.705 0 0 1 3.383 3.72c.133.247.19.476.31.736.223.54.509 1.079.737 1.593.228.514.445 1.035.774 1.46.164.229.813.348 1.11.463.216.101.552.19.742.305.374.229.743.488 1.092.742.178.12.718.394.75.61l.001.002Z" fill="#323338"/></g><defs><clipPath id="a"><path fill="#fff" d="M0 0h39v39H0z"/></clipPath></defs></svg>