<svg width="42" height="23" fill="none" xmlns="http://www.w3.org/2000/svg"><path d="M21 1.116c11.248 0 19.898 4.794 19.898 10.06 0 5.266-8.656 10.06-19.898 10.06-11.248 0-19.898-4.794-19.898-10.06C1.102 5.91 9.758 1.116 21 1.116ZM21 0C9.404 0 0 5 0 11.176s9.404 11.176 21 11.176 21-5 21-11.176S32.596 0 21 0Zm-6.68 10.28c-.52 2.69-2.35 2.41-4.6 2.41l.898-4.688c2.494 0 4.187-.272 3.701 2.278Zm-7.928 7.158H8.8l.571-2.975c2.697 0 4.37.2 5.92-1.268 1.712-1.594 2.159-4.43.938-5.85-.636-.744-1.66-1.11-3.051-1.11h-4.64L6.392 17.439ZM18.578 3.254h2.396l-.571 2.975c2.067 0 3.983-.153 4.909.71.97.904.505 2.059-.545 7.511h-2.428c1.01-5.273 1.2-5.71.833-6.11-.354-.385-1.161-.305-3.11-.305l-1.234 6.415h-2.395l2.145-11.196Zm14.563 7.026c-.525 2.729-2.409 2.41-4.6 2.41l.898-4.688c2.507 0 4.187-.272 3.702 2.278Zm-7.928 7.158h2.415l.571-2.975c2.835 0 4.403.166 5.92-1.268 1.712-1.594 2.159-4.43.938-5.85-.637-.744-1.66-1.11-3.052-1.11h-4.64l-2.152 11.203Z" fill="#323338"/></svg>