<svg width="38" height="31" fill="none" xmlns="http://www.w3.org/2000/svg"><g clip-path="url(#a)"><path d="M17.922 22.942c-.036.066-.018.037 0 0Zm14.792-5.267c-1.195 0-2.373.28-3.444.817-.35-.72-.713-1.35-.772-1.822-.071-.551-.148-.878-.065-1.532.083-.654.457-1.58.45-1.647-.005-.067-.082-.4-.848-.406-.766-.006-1.425.152-1.502.358-.135.376-.24.763-.314 1.156-.137.708-1.532 3.24-2.321 4.56-.262-.515-.481-.97-.529-1.333-.071-.55-.148-.878-.065-1.532.083-.654.457-1.58.451-1.646-.006-.067-.083-.4-.848-.406-.766-.006-1.425.151-1.503.357-.077.206-.16.69-.314 1.156-.155.467-2.012 4.68-2.499 5.777-.25.557-.463 1.005-.617 1.308-.024.048-.042.078-.054.102.018-.03.03-.06.03-.048-.13.26-.208.406-.208.406v.006c-.1.193-.213.369-.267.369-.036 0-.113-.509.018-1.205.279-1.465.938-3.742.932-3.82-.006-.043.125-.436-.433-.648-.54-.2-.737.133-.784.133-.048 0-.083.121-.083.121s.6-2.567-1.152-2.567c-1.092 0-2.612 1.223-3.359 2.33-.47.261-1.484.824-2.553 1.424l-1.23.69c-.029-.03-.053-.06-.082-.09-2.125-2.314-6.049-3.948-5.883-7.054.06-1.133.446-4.106 7.545-7.714 5.819-2.955 10.471-2.144 11.272-.34 1.152 2.574-2.487 7.363-8.53 8.053-2.303.26-3.514-.647-3.816-.986-.315-.358-.363-.376-.481-.31-.196.11-.072.425 0 .612.178.479.92 1.326 2.184 1.75 1.11.37 3.81.575 7.076-.714 3.668-1.441 6.523-5.456 5.686-8.816-.853-3.415-6.405-4.535-11.656-2.634-3.128 1.132-6.512 2.913-8.945 5.232C.31 9.882-.153 12.286.037 13.292c.676 3.565 5.497 5.89 7.426 7.61l-.268.151c-.967.49-4.641 2.453-5.561 4.523-1.04 2.35.172 4.033.967 4.263 2.481.702 5.022-.563 6.387-2.64 1.365-2.077 1.2-4.79.57-6.025-.006-.018-.018-.03-.024-.048.25-.151.505-.303.76-.454.492-.297.973-.57 1.395-.805-.238.653-.41 1.44-.499 2.579-.107 1.332.434 3.057 1.134 3.736.309.296.683.302.914.302.82 0 1.188-.69 1.597-1.513.504-1.005.95-2.174.95-2.174s-.559 3.16.967 3.16c.558 0 1.116-.732 1.366-1.107v.006s.012-.025.042-.073c.059-.09.089-.145.089-.145v-.018c.225-.394.718-1.296 1.46-2.786.962-1.925 1.881-4.329 1.881-4.329.09.529.212 1.05.368 1.562.167.576.517 1.205.796 1.817-.226.315-.362.496-.362.496 0 .005.002.01.006.012-.178.243-.38.503-.588.757-.76.92-1.662 1.974-1.781 2.277-.143.357-.107.623.166.83.202.157.558.18.932.15.682-.048 1.163-.217 1.395-.326.427-.156.83-.372 1.199-.642.742-.557 1.193-1.356 1.152-2.41-.024-.581-.208-1.162-.434-1.707.065-.097.137-.2.202-.303 1.175-1.75 2.084-3.67 2.084-3.67.088.528.211 1.05.368 1.562.142.49.42 1.03.676 1.556-1.104.914-1.787 1.974-2.024 2.67-.44 1.29-.095 1.87.552 2.004.29.06.706-.079 1.015-.212.459-.156.891-.382 1.282-.672.742-.557 1.46-1.338 1.413-2.398-.018-.478-.149-.956-.32-1.416.931-.4 2.142-.618 3.686-.436 3.306.393 3.953 2.5 3.828 3.378-.124.878-.82 1.369-1.05 1.514-.232.145-.304.2-.286.309.03.157.137.151.333.115.273-.049 1.733-.715 1.798-2.343.095-2.06-1.846-4.323-5.284-4.305h.002ZM7.23 26.436c-1.092 1.217-2.624 1.677-3.282 1.29-.707-.42-.428-2.21.92-3.507.819-.787 1.875-1.514 2.576-1.962.16-.097.392-.242.677-.418a.986.986 0 0 1 .07-.042c.054-.037.114-.067.173-.103.492 1.84.018 3.463-1.134 4.74v.002Zm7.978-5.534c-.38.95-1.181 3.372-1.668 3.245-.416-.109-.671-1.955-.083-3.772.297-.914.926-2.004 1.3-2.428.6-.684 1.258-.902 1.413-.63.207.358-.725 2.992-.962 3.585Zm6.59 3.209c-.16.085-.308.14-.38.097-.053-.03.066-.145.066-.145s.825-.903 1.152-1.314c.19-.242.41-.527.646-.842 0 .03.006.06.006.097-.008 1.084-1.028 1.816-1.492 2.107h.002Zm5.082-1.18c-.12-.085-.101-.37.296-1.254.155-.345.51-.926 1.129-1.483.07.21.108.43.112.654-.005 1.362-.961 1.87-1.537 2.082Z" fill="#323338"/></g><defs><clipPath id="a"><path fill="#fff" d="M0 0h38v31H0z"/></clipPath></defs></svg>