<svg width="26" height="26" fill="none" xmlns="http://www.w3.org/2000/svg"><path d="M26 13c0 7.18-5.82 13-13 13S0 20.18 0 13 5.82 0 13 0s13 5.82 13 13Z" fill="#323338"/><path d="M12.768 19.5c-.774 0-1.47-.093-2.09-.28-.619-.187-1.109-.407-1.47-.662-.36-.255-.542-.475-.542-.662 0-.102.052-.255.155-.458.103-.204.224-.39.361-.56.138-.17.267-.255.387-.255.07 0 .224.085.465.255.24.17.576.34 1.005.509.448.17.972.255 1.574.255 1.685 0 2.528-.628 2.528-1.884 0-.68-.25-1.171-.748-1.477-.482-.322-1.092-.603-1.832-.84a14.143 14.143 0 0 1-1.728-.713 3.622 3.622 0 0 1-1.341-1.197c-.344-.509-.516-1.196-.516-2.062 0-.713.18-1.349.542-1.91.378-.56.885-.992 1.521-1.298.654-.322 1.393-.483 2.219-.483.584 0 1.135.05 1.65.153.516.101.938.237 1.264.407.327.17.49.348.49.534 0 .136-.051.314-.154.535-.086.22-.19.416-.31.586-.12.17-.24.254-.36.254-.07 0-.302-.11-.697-.33-.396-.221-.946-.332-1.651-.332-.636 0-1.178.153-1.625.459-.447.288-.67.704-.67 1.247 0 .475.137.857.412 1.146.275.271.808.534 1.6.789.79.254 1.495.56 2.114.916.62.34 1.11.781 1.47 1.324.362.526.542 1.214.542 2.062 0 .764-.206 1.443-.619 2.037-.395.594-.937 1.07-1.625 1.426-.688.34-1.462.509-2.321.509Z" fill="#FFFEFF"/></svg>