<svg width="39" height="39" fill="none" xmlns="http://www.w3.org/2000/svg"><path d="M19.5 19.5c-1.788 0-3.318-.637-4.59-1.91C13.635 16.319 13 14.788 13 13s.636-3.318 1.91-4.59c1.272-1.274 2.802-1.91 4.59-1.91 1.788 0 3.318.636 4.59 1.91C25.364 9.681 26 11.212 26 13s-.637 3.318-1.91 4.59c-1.272 1.273-2.802 1.91-4.59 1.91Zm-13 13v-4.55c0-.92.237-1.767.712-2.54A4.733 4.733 0 0 1 9.1 23.644c1.68-.84 3.385-1.47 5.119-1.89a22.27 22.27 0 0 1 5.281-.629c1.788 0 3.548.21 5.281.63 1.734.42 3.44 1.05 5.119 1.889a4.742 4.742 0 0 1 1.89 1.768c.474.772.711 1.618.71 2.538v4.55h-26Z" fill="#16737B"/></svg>