<svg width="101" height="70" viewBox="0 0 101 70" fill="none" xmlns="http://www.w3.org/2000/svg">
<path d="M100.79 1.55771C101.098 1.09928 100.976 0.477973 100.517 0.169975C100.059 -0.138023 99.4374 -0.0160769 99.1294 0.44235L100.79 1.55771ZM0.864404 63.284C0.567449 63.7496 0.704208 64.3678 1.16986 64.6648L8.75818 69.504C9.22383 69.8009 9.84205 69.6642 10.139 69.1985C10.436 68.7328 10.2992 68.1146 9.83355 67.8177L3.08838 63.5162L7.38986 56.771C7.68682 56.3054 7.55006 55.6871 7.0844 55.3902C6.61874 55.0932 6.00053 55.23 5.70357 55.6957L0.864404 63.284ZM99.1294 0.44235C88.4348 16.3604 53.8552 51.2616 1.49156 62.8453L1.92354 64.798C54.8854 53.0821 89.8685 17.8126 100.79 1.55771L99.1294 0.44235Z" fill="#16737B"/>
</svg>