<svg width="183" height="109" viewBox="0 0 183 109" fill="none" xmlns="http://www.w3.org/2000/svg">
<path d="M181.888 3.85759C182.594 3.00793 182.477 1.74698 181.628 1.04118C180.778 0.33538 179.517 0.452002 178.811 1.30166L181.888 3.85759ZM0.529136 93.335C-0.219178 94.1475 -0.167175 95.4128 0.64529 96.1611L13.8852 108.356C14.6976 109.104 15.9629 109.052 16.7112 108.239C17.4595 107.427 17.4075 106.162 16.595 105.413L4.82627 94.5738L15.6658 82.805C16.4141 81.9926 16.3621 80.7273 15.5497 79.979C14.7372 79.2307 13.4719 79.2827 12.7236 80.0952L0.529136 93.335ZM178.811 1.30166C166.8 15.7609 143.468 37.7772 112.648 56.6C81.8338 75.4202 43.6526 90.9763 1.9181 92.6917L2.08237 96.6883C44.6955 94.9368 83.5365 79.0673 114.733 60.0137C145.926 40.9628 169.594 18.6573 181.888 3.85759L178.811 1.30166Z" fill="#16737B"/>
</svg>
