<svg width="574" height="291" fill="none" xmlns="http://www.w3.org/2000/svg"><mask id="a" style="mask-type:luminance" maskUnits="userSpaceOnUse" x="0" y="0" width="574" height="291"><path d="M574 0H0v291h574V0Z" fill="#fff"/></mask><g mask="url(#a)"><path d="M742.735-283.471h-899v899h899v-899Z" fill="#FFFEFF"/><path d="M565.76 291.003H8.11a8.057 8.057 0 0 1-8.09-8.091 8.057 8.057 0 0 1 8.09-8.091h557.65a8.057 8.057 0 0 1 8.091 8.091 8.057 8.057 0 0 1-8.091 8.091Z" fill="#C9C9C9"/><path d="M113.026 207.397c-8.63 0-15.552-7.012-15.552-15.553 0-8.54 7.012-15.552 15.552-15.552h88.102v31.195h-88.102v-.09Z" fill="#CECECE"/><path d="M206.252 212.791h-93.226c-11.597 0-20.947-9.439-20.947-20.946 0-11.597 9.44-20.947 20.947-20.947h93.226v41.893Z" fill="#fff"/><path d="M107.271 186.99h93.856M107.271 196.519h93.856M113.026 207.397c-8.63 0-15.552-7.012-15.552-15.553 0-8.54 7.012-15.552 15.552-15.552h88.102v31.195h-88.102v-.09Z" stroke="#323338" stroke-width="4" stroke-miterlimit="10" stroke-linecap="round" stroke-linejoin="round"/><path d="M113.026 207.397c-8.631 0-15.553-7.012-15.553-15.552 0-8.541 7.012-15.553 15.553-15.553h89.63l3.596-5.394h-93.226c-11.597 0-20.947 9.439-20.947 20.947 0 11.597 9.44 20.946 20.947 20.946h93.226l-3.596-5.394h-89.63Z" fill="#323338"/><path d="M113.026 207.397c-8.631 0-15.553-7.012-15.553-15.552 0-8.541 7.012-15.553 15.553-15.553h89.63l3.596-5.394h-93.226c-11.597 0-20.947 9.439-20.947 20.947 0 11.597 9.44 20.946 20.947 20.946h93.226l-3.596-5.394h-89.63Z" stroke="#323338" stroke-width="4" stroke-miterlimit="10" stroke-linecap="round" stroke-linejoin="round"/><path opacity=".28" d="M186.205 170.807h-16.542v41.984h16.542v-41.984Z" fill="#5B5B5B" fill-opacity=".2"/><path d="M236.428 247.401H65.708c-3.326 0-6.113-2.697-6.113-6.113v-22.475c0-3.326 2.697-6.113 6.113-6.113h170.72c3.326 0 6.113 2.697 6.113 6.113v22.475c0 3.416-2.697 6.113-6.113 6.113Z" fill="#E9D528"/><path d="M236.428 247.401H65.708c-3.326 0-6.113-2.697-6.113-6.113v-22.475c0-3.326 2.697-6.113 6.113-6.113h170.72c3.326 0 6.113 2.697 6.113 6.113v22.475c0 3.416-2.697 6.113-6.113 6.113Z" stroke="#323338" stroke-width="4" stroke-miterlimit="10" stroke-linecap="round" stroke-linejoin="round"/><path opacity=".28" d="M196.632 212.79h-26.97v13.485c0 8.451 6.833 15.373 15.373 15.373h17.71v-22.745c0-3.416-2.697-6.113-6.113-6.113Z" fill="#5B5B5B" fill-opacity=".2"/><path d="M244.73 254.414H46.95c1.168 2.877 1.798 6.473 1.798 10.249 0 3.775-.63 7.282-1.798 10.248h197.69c-1.169-2.876-1.798-6.473-1.798-10.248.09-3.866.719-7.372 1.888-10.249Z" fill="#CECECE"/><path d="M250.123 248.93H41.645v5.394h208.478v-5.394Z" fill="#323338"/><path d="M250.123 248.93H41.645v5.394h208.478v-5.394Z" stroke="#323338" stroke-width="4" stroke-miterlimit="10" stroke-linecap="round" stroke-linejoin="round"/><path d="M250.123 274.822H41.645v5.394h208.478v-5.394Z" fill="#F6F9FD"/><path d="M250.123 274.822H41.645v5.394h208.478v-5.394Z" fill="#323338"/><path d="M250.123 274.822H41.645v5.394h208.478v-5.394Z" stroke="#323338" stroke-width="4" stroke-miterlimit="10" stroke-linecap="round" stroke-linejoin="round"/><path d="m353.688 261.067-2.697-30.297H306.58l-2.697 30.297c-.629 7.012-4.854 13.754-11.507 19.148v.09h72.819v-.09c-6.653-5.394-10.878-12.136-11.507-19.148Z" fill="#D7D8D8"/><path opacity=".28" d="m306.58 230.77-1.618 18.16h47.647l-1.618-18.16H306.58Z" fill="#5B5B5B" fill-opacity=".2"/><path d="m353.688 261.067-2.697-30.297H306.58l-2.697 30.297c-.629 7.012-4.854 13.754-11.507 19.148v.09h72.819v-.09c-6.653-5.394-10.878-12.136-11.507-19.148Z" stroke="#323338" stroke-width="4" stroke-miterlimit="10" stroke-linecap="round" stroke-linejoin="round"/><path d="M470.829 235.265H186.745c-5.933 0-10.788-4.854-10.788-10.788V39.283c0-5.933 4.855-10.788 10.788-10.788h284.084c5.933 0 10.788 4.855 10.788 10.788v185.194a10.762 10.762 0 0 1-10.788 10.788Z" fill="#fff"/><path d="M470.829 235.265H186.745c-5.933 0-10.788-4.854-10.788-10.788V39.283c0-5.933 4.855-10.788 10.788-10.788h284.084c5.933 0 10.788 4.855 10.788 10.788v185.194a10.762 10.762 0 0 1-10.788 10.788Z" fill="#D7D8D8"/><path d="M470.829 235.265H186.745c-5.933 0-10.788-4.854-10.788-10.788V39.283c0-5.933 4.855-10.788 10.788-10.788h284.084c5.933 0 10.788 4.855 10.788 10.788v185.194a10.762 10.762 0 0 1-10.788 10.788Z" stroke="#323338" stroke-width="4" stroke-miterlimit="10" stroke-linecap="round" stroke-linejoin="round"/><path d="M466.384 200.769V43.803H191.29V200.77h275.094Z" fill="#FFFEFF"/><path opacity=".28" d="M200.639 29.278V153.35c0 3.938 3.207 7.161 7.128 7.161h168.487c3.921 0 7.128-3.223 7.128-7.161V29.279H200.639Z" fill="#000" fill-opacity=".3"/><path d="M466.384 200.769V43.803H191.29V200.77h275.094ZM316.739 217.915h24.183" stroke="#323338" stroke-width="4" stroke-miterlimit="10" stroke-linecap="round" stroke-linejoin="round"/><path d="M386.411 150.4H216.41c-3.956 0-7.192-3.237-7.192-7.192V9.976c0-3.956 3.236-7.192 7.192-7.192h170.001c3.955 0 7.192 3.236 7.192 7.192v133.322c0 3.955-3.237 7.102-7.192 7.102Z" fill="#323338"/><path d="M393.603 20.225H209.218V9.886c0-3.956 3.236-7.192 7.192-7.192h170.001c3.955 0 7.192 3.236 7.192 7.192v10.339Z" stroke="#1F3969" stroke-width="4" stroke-miterlimit="10" stroke-linecap="round" stroke-linejoin="round"/><path d="M393.603 23.64H209.218V9.887c0-3.956 3.236-7.192 7.192-7.192h170.001c3.955 0 7.192 3.236 7.192 7.192v13.755Z" fill="#D7D8D8"/><path d="M393.603 23.64H209.218V9.887c0-3.956 3.236-7.192 7.192-7.192h170.001c3.955 0 7.192 3.236 7.192 7.192v13.755Z" stroke="#1F3969" stroke-width="4" stroke-miterlimit="10" stroke-linecap="round" stroke-linejoin="round"/><path d="M393.603 23.64H209.218V9.887c0-3.956 3.236-7.192 7.192-7.192h170.001c3.955 0 7.192 3.236 7.192 7.192v13.755Z" stroke="#323338" stroke-width="4" stroke-miterlimit="10" stroke-linecap="round" stroke-linejoin="round"/><path d="M80.163 224.209v9.972c0 1.544-.449 2.733-1.346 3.567-.882.835-2.077 1.252-3.586 1.252-1.58 0-2.847-.438-3.8-1.314-.954-.877-1.431-2.121-1.431-3.735h3.63c0 .612.128 1.078.384 1.398.256.306.626.459 1.11.459.441 0 .783-.139 1.025-.417.242-.278.363-.682.363-1.21v-9.972h3.65ZM88.534 239c-1.096 0-2.078-.174-2.946-.522-.868-.347-1.566-.862-2.092-1.543-.513-.682-.783-1.502-.811-2.462h3.885c.057.542.25.96.577 1.252.327.278.754.417 1.28.417.541 0 .968-.118 1.282-.355.313-.25.47-.591.47-1.022 0-.362-.129-.661-.385-.897a2.847 2.847 0 0 0-.918-.584c-.356-.153-.868-.327-1.537-.522-.968-.292-1.758-.584-2.37-.876a4.349 4.349 0 0 1-1.58-1.294c-.441-.57-.662-1.314-.662-2.232 0-1.363.505-2.427 1.516-3.192 1.01-.779 2.327-1.168 3.95-1.168 1.65 0 2.982.389 3.992 1.168 1.01.765 1.552 1.836 1.623 3.213h-3.95c-.028-.473-.206-.841-.534-1.106-.327-.278-.747-.417-1.26-.417-.44 0-.796.118-1.067.355-.27.222-.405.549-.405.98 0 .473.227.842.683 1.106.455.264 1.167.549 2.135.855.968.32 1.75.626 2.348.918a4.447 4.447 0 0 1 1.58 1.273c.441.556.662 1.273.662 2.149 0 .834-.22 1.592-.662 2.274-.427.681-1.053 1.224-1.879 1.627-.825.403-1.8.605-2.925.605Z" fill="#323338"/><path d="M386.411 150.4H216.41c-3.956 0-7.192-3.237-7.192-7.192V9.976c0-3.956 3.236-7.192 7.192-7.192h170.001c3.955 0 7.192 3.236 7.192 7.192v133.322c0 3.955-3.237 7.102-7.192 7.102Z" stroke="#323338" stroke-width="4" stroke-miterlimit="10" stroke-linecap="round" stroke-linejoin="round"/><path opacity=".28" d="M475.143 182.224H370.859c-3.956 0-7.192-3.236-7.192-7.192V64.545c0-3.955 3.236-7.192 7.192-7.192h104.284c3.956 0 7.192 3.237 7.192 7.192v110.487c0 4.046-3.236 7.192-7.192 7.192Z" fill="#000" fill-opacity=".3"/><path d="M482.335 175.931H378.051c-3.955 0-7.192-3.236-7.192-7.192V58.252c0-3.955 3.237-7.192 7.192-7.192h104.284c3.956 0 7.192 3.237 7.192 7.192V168.74c0 4.046-3.236 7.192-7.192 7.192Z" fill="#323338"/><path d="M482.335 175.931H378.051c-3.955 0-7.192-3.236-7.192-7.192V58.252c0-3.955 3.237-7.192 7.192-7.192h104.284c3.956 0 7.192 3.237 7.192 7.192V168.74c0 4.046-3.236 7.192-7.192 7.192Z" stroke="#323338" stroke-width="4" stroke-miterlimit="10" stroke-linecap="round" stroke-linejoin="round"/><path opacity=".34" d="M466.783 85.312h-73.358a4.643 4.643 0 0 1-4.675-4.675v-7.012a4.643 4.643 0 0 1 4.675-4.675h73.358a4.643 4.643 0 0 1 4.675 4.675v7.012a4.643 4.643 0 0 1-4.675 4.675Z" stroke="#fff" stroke-width="2" stroke-miterlimit="10" stroke-linecap="round" stroke-linejoin="round"/><g opacity=".34" stroke="#fff" stroke-width="2" stroke-miterlimit="10" stroke-linecap="round" stroke-linejoin="round"><path opacity=".34" d="M434.599 111.653h-40.995a4.642 4.642 0 0 1-4.674-4.675v-7.012a4.642 4.642 0 0 1 4.674-4.675h40.995a4.643 4.643 0 0 1 4.675 4.675v7.012c-.09 2.607-2.158 4.675-4.675 4.675ZM466.873 111.653h-15.912a4.643 4.643 0 0 1-4.675-4.675v-7.012a4.643 4.643 0 0 1 4.675-4.675h15.912a4.643 4.643 0 0 1 4.675 4.675v7.012a4.643 4.643 0 0 1-4.675 4.675Z"/></g><path d="M388.838 138.983h82.618M388.838 148.692h82.618M388.838 158.401h50.344" stroke="#fff" stroke-width="2" stroke-miterlimit="10" stroke-linecap="round" stroke-linejoin="round"/><path d="M227.289 16.808a3.596 3.596 0 1 0 0-7.192 3.596 3.596 0 0 0 0 7.192ZM239.784 16.808a3.596 3.596 0 1 0 0-7.192 3.596 3.596 0 0 0 0 7.192ZM252.281 16.808a3.597 3.597 0 1 0-.002-7.193 3.597 3.597 0 0 0 .002 7.193Z" fill="#323338"/><path d="M315.122 40.272h11.687" stroke="#fff" stroke-width="4" stroke-miterlimit="10" stroke-linecap="round" stroke-linejoin="round"/><path d="M255.877 40.272h50.614M230.885 40.272h17.8M254.078 128.824h38.657M230.885 128.824h12.496" stroke="#FFFEFF" stroke-width="4" stroke-miterlimit="10" stroke-linecap="round" stroke-linejoin="round"/><path d="M306.491 51.33h7.282" stroke="#fff" stroke-width="4" stroke-miterlimit="10" stroke-linecap="round" stroke-linejoin="round"/><path d="M273.407 51.33h24.453M239.785 51.33h24.902" stroke="#FFFEFF" stroke-width="4" stroke-miterlimit="10" stroke-linecap="round" stroke-linejoin="round"/><path d="M278.352 62.388h21.486" stroke="#fff" stroke-width="4" stroke-miterlimit="10" stroke-linecap="round" stroke-linejoin="round"/><path d="M251.383 62.388h20.227" stroke="#FFFEFF" stroke-width="4" stroke-miterlimit="10" stroke-linecap="round" stroke-linejoin="round"/><path d="M281.23 73.445h4.406" stroke="#fff" stroke-width="4" stroke-miterlimit="10" stroke-linecap="round" stroke-linejoin="round"/><path d="M263.428 73.445h9.979M239.785 73.445h16.092M274.307 84.593h28.678M239.785 84.593h25.712M307.479 95.65h15.553M274.307 95.65h24.902M251.383 95.65h14.114" stroke="#FFFEFF" stroke-width="4" stroke-miterlimit="10" stroke-linecap="round" stroke-linejoin="round"/><path d="M285.634 106.709h13.575" stroke="#fff" stroke-width="4" stroke-miterlimit="10" stroke-linecap="round" stroke-linejoin="round"/><path d="M251.383 106.709h24.902" stroke="#FFFEFF" stroke-width="4" stroke-miterlimit="10" stroke-linecap="round" stroke-linejoin="round"/><path d="M320.965 117.766h15.553" stroke="#fff" stroke-width="4" stroke-miterlimit="10" stroke-linecap="round" stroke-linejoin="round"/><path d="M273.407 117.766h39.107" stroke="#FFFEFF" stroke-width="4" stroke-miterlimit="10" stroke-linecap="round" stroke-linejoin="round"/><path d="M239.785 117.766h24.902" stroke="#fff" stroke-width="4" stroke-miterlimit="10" stroke-linecap="round" stroke-linejoin="round"/><path d="M49.197 260.617h193.735M49.197 267.809h193.735M244.73 254.414H46.95c1.168 2.877 1.798 6.473 1.798 10.249 0 3.775-.63 7.282-1.798 10.248h197.69c-1.169-2.876-1.798-6.473-1.798-10.248.09-3.866.719-7.372 1.888-10.249Z" stroke="#323338" stroke-width="4" stroke-miterlimit="10" stroke-linecap="round" stroke-linejoin="round"/><path d="m510.786 181.119-8.75 1.028 7.61 64.823 8.75-1.028-7.61-64.823Z" fill="#323338"/><path d="m510.797 181.188-8.75 1.027.776 6.607 8.75-1.028-.776-6.606Z" fill="#323338"/><path d="m510.797 181.188-8.75 1.027.776 6.607 8.75-1.028-.776-6.606Z" stroke="#323338" stroke-width="4" stroke-miterlimit="10" stroke-linecap="round" stroke-linejoin="round"/><path d="m510.786 181.119-8.75 1.028 7.61 64.823 8.75-1.028-7.61-64.823Z" stroke="#323338" stroke-width="4" stroke-miterlimit="10" stroke-linecap="round" stroke-linejoin="round"/><path d="m534.78 194.397-8.758-.952-7.055 64.882 8.758.953 7.055-64.883Z" fill="#323338"/><path d="m534.78 194.397-8.758-.952-7.055 64.882 8.758.953 7.055-64.883Z" stroke="#323338" stroke-width="4" stroke-miterlimit="10" stroke-linecap="round" stroke-linejoin="round"/><path d="m534.845 194.412-8.758-.952-.719 6.614 8.758.952.719-6.614Z" fill="#323338"/><path d="m534.845 194.412-8.758-.952-.719 6.614 8.758.952.719-6.614Z" stroke="#323338" stroke-width="4" stroke-miterlimit="10" stroke-linecap="round" stroke-linejoin="round"/><path d="M540.229 280.485h-35.331l-5.753-54.12h46.837l-5.753 54.12Z" fill="#323338"/><path d="m499.145 226.365.089.989h35.691l-2.832 26.565-2.832 26.566h10.968l5.753-54.12h-46.837Z" fill="#323338"/><path d="M540.229 280.485h-35.331l-5.753-54.12h46.837l-5.753 54.12Z" stroke="#323338" stroke-width="4" stroke-miterlimit="10" stroke-linecap="round" stroke-linejoin="round"/></g></svg>