<svg width="40" height="40" fill="none" xmlns="http://www.w3.org/2000/svg"><path d="M6.667 30c-.473 0-.869-.16-1.189-.48-.32-.32-.48-.715-.478-1.187 0-.472.16-.868.48-1.188.32-.32.716-.48 1.187-.478h26.666c.473 0 .869.16 1.189.48.32.32.48.715.478 1.186 0 .473-.16.869-.48 1.189-.32.32-.716.48-1.187.478H6.667Zm0-8.333c-.473 0-.869-.16-1.189-.48-.32-.32-.48-.716-.478-1.187 0-.472.16-.868.48-1.188.32-.32.716-.48 1.187-.479h26.666c.473 0 .869.16 1.189.48.32.32.48.716.478 1.187 0 .472-.16.868-.48 1.188-.32.32-.716.48-1.187.479H6.667Zm0-8.334c-.473 0-.869-.16-1.189-.48-.32-.32-.48-.715-.478-1.186 0-.473.16-.869.48-1.189.32-.32.716-.48 1.187-.478h26.666c.473 0 .869.16 1.189.48.32.32.48.716.478 1.187 0 .472-.16.868-.48 1.188-.32.32-.716.48-1.187.478H6.667Z" fill="#323338"/></svg>